<!-- Shape: shape-8793b6a6-ddf0-808a-8001-d12257bfb3ea -->
<svg xmlns:xlink="http://www.w3.org/1999/xlink" fill="none" width="24" xmlns="http://www.w3.org/2000/svg" style="-webkit-print-color-adjust:exact" id="screenshot-f4d38a4d-ab93-8008-8002-de98edb76457" version="1.1" viewBox="1814 1658 24 22.361" height="22.361">
  <g id="shape-f4d38a4d-ab93-8008-8002-de98edb76457" style="fill:#000000" ry="0" rx="0">
    <g id="shape-f4d38a4d-ab93-8008-8002-de98edb76458" style="fill:#000000" rx="0" ry="0">
      <g id="shape-f4d38a4d-ab93-8008-8002-de98edb76459" style="fill:#000000" class="fills" rx="0" ry="0">
        <g id="shape-f4d38a4d-ab93-8008-8002-de98edb7645a">
          <g class="fills" id="fills-f4d38a4d-ab93-8008-8002-de98edb7645a">
            <path fill-rule="evenodd" clip-rule="evenodd" rx="0" ry="0" style="-webkit-print-color-adjust:exact;opacity:1;fill:#ef4d3a" d="M1834.119,1658.112C1834.492,1658.295,1834.728,1658.675,1834.728,1659.091L1834.728,1663.416L1835.698,1664.064C1837.136,1665.022,1838.000,1666.636,1838.000,1668.363C1838.000,1670.090,1837.136,1671.704,1835.698,1672.662L1834.728,1673.309L1834.728,1676.543C1834.728,1676.956,1834.496,1677.332,1834.129,1677.517C1833.761,1677.703,1833.320,1677.666,1832.989,1677.421L1832.982,1677.416L1832.963,1677.402L1832.883,1677.343L1832.579,1677.125C1832.319,1676.942,1831.953,1676.686,1831.532,1676.405C1830.676,1675.835,1829.642,1675.193,1828.810,1674.804C1827.296,1674.095,1825.718,1673.568,1824.508,1673.216C1824.074,1673.090,1823.637,1672.973,1823.199,1672.864C1822.324,1674.285,1822.659,1676.138,1823.977,1677.162C1825.322,1678.208,1824.583,1680.361,1822.882,1680.361L1819.456,1680.361C1819.020,1680.361,1818.625,1680.102,1818.453,1679.700L1818.038,1678.729C1817.144,1676.643,1817.098,1674.290,1817.910,1672.170L1817.959,1672.042C1815.408,1671.421,1813.724,1668.991,1814.037,1666.384C1814.350,1663.778,1816.563,1661.817,1819.188,1661.818L1822.729,1661.818C1822.758,1661.818,1822.787,1661.819,1822.816,1661.821L1822.818,1661.821L1822.838,1661.823L1822.933,1661.827C1823.531,1661.849,1824.129,1661.835,1824.725,1661.786C1825.897,1661.690,1827.406,1661.435,1828.842,1660.815C1829.665,1660.461,1830.685,1659.828,1831.536,1659.253C1831.988,1658.947,1832.433,1658.630,1832.870,1658.303L1832.949,1658.244L1832.968,1658.229L1832.973,1658.226C1833.302,1657.973,1833.746,1657.929,1834.119,1658.112ZZZM1821.638,1663.999L1819.188,1663.999C1817.614,1663.999,1816.306,1665.215,1816.193,1666.785C1816.078,1668.356,1817.196,1669.748,1818.754,1669.976L1819.610,1670.100L1821.638,1670.381L1821.638,1663.999ZZZM1823.820,1670.771C1824.170,1670.858,1824.613,1670.976,1825.118,1671.123C1826.390,1671.492,1828.084,1672.056,1829.736,1672.828C1830.651,1673.257,1831.703,1673.906,1832.546,1674.461L1832.546,1661.202C1831.705,1661.763,1830.646,1662.413,1829.706,1662.819C1827.979,1663.564,1826.215,1663.853,1824.905,1663.961C1824.499,1663.994,1824.134,1664.011,1823.820,1664.018L1823.820,1670.771ZZZM1820.949,1672.489L1820.165,1672.380L1819.947,1672.950C1819.339,1674.541,1819.372,1676.305,1820.043,1677.870L1820.175,1678.180L1821.888,1678.180C1820.517,1676.616,1820.153,1674.410,1820.949,1672.489ZZZM1834.728,1670.669C1835.418,1670.102,1835.818,1669.256,1835.818,1668.362C1835.818,1667.469,1835.418,1666.623,1834.728,1666.055L1834.728,1670.669ZZZ">
            </path>
          </g>
        </g>
      </g>
    </g>
  </g>
</svg>