<!-- Shape: shape-40adcd9a-ba65-80ab-8001-d247fe442adf -->
<!-- <svg xmlns:xlink="http://www.w3.org/1999/xlink" fill="none" width="28" xmlns="http://www.w3.org/2000/svg" style="-webkit-print-color-adjust:exact" id="screenshot-292142bc-ba6c-806d-8002-dea9b7730503" version="1.1" viewBox="3230 1432.522 28 24.955" height="24.955">
  <g id="shape-292142bc-ba6c-806d-8002-dea9b7730503" style="fill:#000000" ry="0" rx="0">
    <g id="shape-292142bc-ba6c-806d-8002-dea9b7730505" style="fill:#000000" rx="0" ry="0">
      <g id="shape-292142bc-ba6c-806d-8002-dea9b7730506" style="fill:#000000" class="fills" rx="0" ry="0">
        <g id="shape-292142bc-ba6c-806d-8002-dea9b7730507">
          <g class="fills" id="fills-292142bc-ba6c-806d-8002-dea9b7730507">
            <path fill-rule="evenodd" clip-rule="evenodd" rx="0" ry="0" style="-webkit-print-color-adjust:exact;opacity:1;fill:#232222;fill-opacity:1" d="M3243.159,1432.858C3243.629,1432.410,3244.369,1432.410,3244.839,1432.858L3254.578,1442.133L3257.621,1445.030C3258.109,1445.494,3258.128,1446.266,3257.664,1446.753C3257.200,1447.241,3256.430,1447.259,3255.941,1446.796L3254.955,1445.855L3254.955,1455.043C3254.955,1456.388,3253.866,1457.478,3252.521,1457.478L3235.478,1457.478C3234.134,1457.478,3233.043,1456.388,3233.043,1455.043L3233.043,1445.855L3232.057,1446.794C3231.743,1447.095,3231.292,1447.205,3230.874,1447.082C3230.457,1446.959,3230.136,1446.623,3230.034,1446.200C3229.932,1445.777,3230.063,1445.332,3230.377,1445.032L3233.421,1442.133L3243.159,1432.858ZZZM3235.478,1443.537L3235.478,1455.043L3240.347,1455.043L3240.347,1448.956C3240.347,1446.939,3241.982,1445.304,3243.999,1445.304C3246.016,1445.304,3247.651,1446.939,3247.651,1448.956L3247.651,1455.043L3252.521,1455.043L3252.521,1443.537L3243.999,1435.420L3235.478,1443.537ZZZM3245.217,1455.043L3245.217,1448.956C3245.217,1448.284,3244.671,1447.739,3243.999,1447.739C3243.327,1447.739,3242.782,1448.284,3242.782,1448.956L3242.782,1455.043L3245.217,1455.043ZZZ">
            </path>
          </g>
        </g>
      </g>
    </g>
  </g>
</svg> -->

<svg xmlns="http://www.w3.org/2000/svg" fill="none" viewBox="0 0 24 24" stroke-width="1.5" stroke="currentColor" class="w-6 h-6 text-[#fff]">
  <path stroke-linecap="round" stroke-linejoin="round" d="M2.25 12l8.954-8.955c.44-.439 1.152-.439 1.591 0L21.75 12M4.5 9.75v10.125c0 .621.504 1.125 1.125 1.125H9.75v-4.875c0-.621.504-1.125 1.125-1.125h2.25c.621 0 1.125.504 1.125 1.125V21h4.125c.621 0 1.125-.504 1.125-1.125V9.75M8.25 21h8.25" />
</svg>
