<!-- Shape: shape-8793b6a6-ddf0-808a-8001-d12257e009ad -->
<svg xmlns:xlink="http://www.w3.org/1999/xlink" fill="none" width="20" xmlns="http://www.w3.org/2000/svg" style="-webkit-print-color-adjust:exact" id="screenshot-a515e62c-a328-8050-8002-e13fefc5ec00" version="1.1" viewBox="1739 4116.5 20 20" height="20">
  <g id="shape-a515e62c-a328-8050-8002-e13fefc5ec00" style="fill:#000000" ry="0" rx="0">
    <g id="shape-a515e62c-a328-8050-8002-e13fefc5ec01" style="fill:#000000" rx="0" ry="0">
      <g id="shape-a515e62c-a328-8050-8002-e13fefc5ec02" style="fill:#000000" class="fills" rx="0" ry="0">
        <g id="shape-a515e62c-a328-8050-8002-e13fefc5ec03">
          <g class="fills" id="fills-a515e62c-a328-8050-8002-e13fefc5ec03">
            <path fill-rule="evenodd" clip-rule="evenodd" rx="0" ry="0" style="-webkit-print-color-adjust:exact;opacity:1;fill:#232222" d="M1744.556,4123.167C1744.556,4120.712,1746.546,4118.722,1749.000,4118.722C1751.454,4118.722,1753.444,4120.712,1753.444,4123.167C1753.444,4125.621,1751.454,4127.611,1749.000,4127.611C1746.546,4127.611,1744.556,4125.621,1744.556,4123.167ZZZM1753.249,4128.303C1755.414,4126.511,1756.224,4123.553,1755.272,4120.908C1754.320,4118.263,1751.811,4116.500,1749.000,4116.500C1746.188,4116.500,1743.679,4118.263,1742.727,4120.908C1741.774,4123.553,1742.584,4126.511,1744.750,4128.303C1741.207,4129.551,1739.000,4132.330,1739.000,4135.389C1739.000,4136.002,1739.498,4136.500,1740.111,4136.500C1740.724,4136.500,1741.222,4136.002,1741.222,4135.389C1741.222,4132.867,1743.839,4129.833,1749.000,4129.833C1754.161,4129.833,1756.778,4132.867,1756.778,4135.389C1756.778,4136.002,1757.276,4136.500,1757.889,4136.500C1758.502,4136.500,1759.000,4136.002,1759.000,4135.389C1759.000,4132.330,1756.796,4129.551,1753.249,4128.303ZZZ">
            </path>
          </g>
        </g>
      </g>
    </g>
  </g>
</svg>