<!-- Shape: shape-8793b6a6-ddf0-808a-8001-d12258438647 -->
<svg xmlns:xlink="http://www.w3.org/1999/xlink" fill="none" width="24" xmlns="http://www.w3.org/2000/svg" style="-webkit-print-color-adjust:exact" id="screenshot-f4d38a4d-ab93-8008-8002-de992ea9e8d8" version="1.1" viewBox="1814 1545.091 24 23.998" height="23.998">
  <g id="shape-f4d38a4d-ab93-8008-8002-de992ea9e8d8" style="fill:#000000" ry="0" rx="0">
    <g id="shape-f4d38a4d-ab93-8008-8002-de992ea9e8d9" style="fill:#000000" rx="0" ry="0">
      <g id="shape-f4d38a4d-ab93-8008-8002-de992ea9e8da" style="fill:#000000" class="fills" rx="0" ry="0">
        <g id="shape-f4d38a4d-ab93-8008-8002-de992ea9e8db">
          <g class="fills" id="fills-f4d38a4d-ab93-8008-8002-de992ea9e8db">
            <path fill-rule="evenodd" clip-rule="evenodd" rx="0" ry="0" style="-webkit-print-color-adjust:exact;opacity:1;fill:#232222" d="M1816.380,1548.661C1816.380,1548.004,1816.913,1547.471,1817.569,1547.471L1824.913,1547.471C1825.228,1547.471,1825.531,1547.596,1825.754,1547.819L1835.272,1557.338C1835.736,1557.803,1835.736,1558.556,1835.272,1559.020L1827.929,1566.363C1827.465,1566.827,1826.711,1566.827,1826.246,1566.363L1816.728,1556.845C1816.504,1556.623,1816.380,1556.319,1816.380,1556.004L1816.380,1548.661ZZZM1817.569,1545.091C1815.598,1545.091,1814.000,1546.689,1814.000,1548.661L1814.000,1556.004C1814.000,1556.950,1814.377,1557.858,1815.046,1558.526L1824.564,1568.044C1825.958,1569.438,1828.218,1569.438,1829.611,1568.044L1836.954,1560.703C1837.624,1560.034,1838.000,1559.126,1838.000,1558.180C1838.000,1557.233,1837.624,1556.325,1836.954,1555.655L1827.436,1546.137C1826.767,1545.467,1825.860,1545.091,1824.913,1545.091L1817.569,1545.091ZZZM1821.139,1554.609C1822.453,1554.609,1823.518,1553.545,1823.518,1552.230C1823.518,1550.915,1822.453,1549.850,1821.139,1549.850C1819.824,1549.850,1818.759,1550.915,1818.759,1552.230C1818.759,1553.545,1819.824,1554.609,1821.139,1554.609ZZZ">
            </path>
          </g>
        </g>
      </g>
    </g>
  </g>
</svg>