<!-- Shape: shape-8793b6a6-ddf0-808a-8001-d122587b8ba5 -->
<svg xmlns:xlink="http://www.w3.org/1999/xlink" fill="none" width="23.832" xmlns="http://www.w3.org/2000/svg" style="-webkit-print-color-adjust:exact" id="screenshot-f4d38a4d-ab93-8008-8002-de98b6402019" version="1.1" viewBox="1814 1488.045 23.832 26" height="26">
  <g id="shape-f4d38a4d-ab93-8008-8002-de98b6402019" style="fill:#000000" ry="0" rx="0">
    <g id="shape-f4d38a4d-ab93-8008-8002-de98b640201a" style="fill:#000000" rx="0" ry="0">
      <g id="shape-f4d38a4d-ab93-8008-8002-de98b640201b" style="fill:#000000" class="fills" rx="0" ry="0">
        <g id="shape-f4d38a4d-ab93-8008-8002-de98b640201c">
          <g class="fills" id="fills-f4d38a4d-ab93-8008-8002-de98b640201c">
            <path fill-rule="evenodd" clip-rule="evenodd" rx="0" ry="0" style="-webkit-print-color-adjust:exact;opacity:1;fill:#ef4d3a" d="M1825.100,1513.675C1825.306,1513.910,1825.603,1514.045,1825.916,1514.045C1826.229,1514.045,1826.526,1513.910,1826.732,1513.675L1830.198,1509.711L1834.582,1509.711C1836.377,1509.711,1837.832,1508.256,1837.832,1506.461L1837.832,1491.295C1837.832,1489.500,1836.377,1488.045,1834.582,1488.045L1817.250,1488.045C1815.455,1488.045,1814.000,1489.500,1814.000,1491.295L1814.000,1506.461C1814.000,1508.256,1815.455,1509.711,1817.250,1509.711L1821.633,1509.711L1825.100,1513.675ZZZM1828.892,1507.915L1825.916,1511.316L1822.940,1507.915C1822.735,1507.680,1822.438,1507.544,1822.125,1507.544L1817.250,1507.544C1816.652,1507.544,1816.167,1507.059,1816.167,1506.461L1816.167,1491.295C1816.167,1490.697,1816.652,1490.212,1817.250,1490.212L1834.582,1490.212C1835.180,1490.212,1835.666,1490.697,1835.666,1491.295L1835.666,1506.461C1835.666,1507.059,1835.180,1507.544,1834.582,1507.544L1829.708,1507.544C1829.396,1507.544,1829.098,1507.679,1828.892,1507.915ZZZM1820.500,1495.628C1819.902,1495.628,1819.416,1496.113,1819.416,1496.711C1819.416,1497.309,1819.902,1497.795,1820.500,1497.795L1831.333,1497.795C1831.931,1497.795,1832.416,1497.309,1832.416,1496.711C1832.416,1496.113,1831.931,1495.628,1831.333,1495.628L1820.500,1495.628ZZZM1820.500,1499.961C1819.902,1499.961,1819.416,1500.447,1819.416,1501.045C1819.416,1501.643,1819.902,1502.128,1820.500,1502.128L1831.333,1502.128C1831.931,1502.128,1832.416,1501.643,1832.416,1501.045C1832.416,1500.447,1831.931,1499.961,1831.333,1499.961L1820.500,1499.961ZZZ">
            </path>
          </g>
        </g>
      </g>
    </g>
  </g>
</svg>