<!-- Shape: shape-8793b6a6-ddf0-808a-8001-d122582c3d84 -->
<svg xmlns:xlink="http://www.w3.org/1999/xlink" fill="none" width="22" xmlns="http://www.w3.org/2000/svg" style="-webkit-print-color-adjust:exact" id="screenshot-f4d38a4d-ab93-8008-8002-de998d06cf4f" version="1.1" viewBox="1814 1602.135 22 22.001" height="22.001">
  <g id="shape-f4d38a4d-ab93-8008-8002-de998d06cf4f" style="fill:#000000" ry="0" rx="0">
    <g id="shape-f4d38a4d-ab93-8008-8002-de998d06cf50" style="fill:#000000" rx="0" ry="0">
      <g id="shape-f4d38a4d-ab93-8008-8002-de998d06cf51" style="fill:#000000" class="fills" rx="0" ry="0">
        <g id="shape-f4d38a4d-ab93-8008-8002-de998d06cf52">
          <g class="fills" id="fills-f4d38a4d-ab93-8008-8002-de998d06cf52">
            <path fill-rule="evenodd" clip-rule="evenodd" rx="0" ry="0" style="-webkit-print-color-adjust:exact;opacity:1;fill:#ef4d3a" d="M1829.593,1603.198C1831.012,1601.780,1833.311,1601.780,1834.728,1603.198L1834.937,1603.406C1836.354,1604.825,1836.354,1607.124,1834.937,1608.542L1832.834,1610.648L1820.909,1622.571C1820.754,1622.726,1820.561,1622.836,1820.348,1622.889L1815.505,1624.100C1815.092,1624.203,1814.655,1624.083,1814.355,1623.781C1814.053,1623.481,1813.933,1623.044,1814.036,1622.631L1815.247,1617.788C1815.300,1617.575,1815.410,1617.382,1815.565,1617.227L1827.559,1605.233L1829.593,1603.198ZZZM1833.017,1604.910C1832.544,1604.438,1831.778,1604.438,1831.305,1604.910L1830.111,1606.104L1831.993,1608.062L1833.225,1606.830C1833.697,1606.358,1833.697,1605.592,1833.225,1605.118L1833.017,1604.910ZZZM1830.280,1609.774L1828.398,1607.817L1817.515,1618.701L1816.874,1621.261L1819.435,1620.620L1830.280,1609.774ZZZ">
            </path>
          </g>
        </g>
      </g>
    </g>
  </g>
</svg>