<!-- Shape: shape-8793b6a6-ddf0-808a-8001-d12540406402 -->
<svg xmlns:xlink="http://www.w3.org/1999/xlink" fill="none" width="22" xmlns="http://www.w3.org/2000/svg" style="-webkit-print-color-adjust:exact" id="screenshot-292142bc-ba6c-806d-8002-dea88db75216" version="1.1" viewBox="2977 2091 22 22" height="22">
  <g id="shape-292142bc-ba6c-806d-8002-dea88db75216" style="fill:#000000" ry="0" rx="0">
    <g id="shape-292142bc-ba6c-806d-8002-dea88db75217" style="fill:#000000" rx="0" ry="0">
      <g id="shape-292142bc-ba6c-806d-8002-dea88db75218" style="fill:#000000" class="fills" rx="0" ry="0">
        <g id="shape-292142bc-ba6c-806d-8002-dea88db75219">
          <g class="fills" id="fills-292142bc-ba6c-806d-8002-dea88db75219">
            <path rx="0" ry="0" style="-webkit-print-color-adjust:exact;opacity:1;fill:#000000;fill-opacity:1" d="M2979.000,2102.000C2979.000,2097.029,2983.029,2093.000,2988.000,2093.000C2992.971,2093.000,2997.000,2097.029,2997.000,2102.000C2997.000,2106.971,2992.971,2111.000,2988.000,2111.000C2983.029,2111.000,2979.000,2106.971,2979.000,2102.000ZZZM2988.000,2091.000C2981.925,2091.000,2977.000,2095.925,2977.000,2102.000C2977.000,2108.075,2981.925,2113.000,2988.000,2113.000C2994.075,2113.000,2999.000,2108.075,2999.000,2102.000C2999.000,2095.925,2994.075,2091.000,2988.000,2091.000ZZZM2986.707,2096.293C2986.315,2095.914,2985.691,2095.919,2985.305,2096.305C2984.919,2096.691,2984.914,2097.315,2985.293,2097.707L2989.586,2102.000L2985.293,2106.293C2985.033,2106.544,2984.929,2106.916,2985.020,2107.266C2985.112,2107.615,2985.385,2107.888,2985.735,2107.980C2986.084,2108.071,2986.456,2107.967,2986.707,2107.707L2991.707,2102.707C2992.097,2102.317,2992.097,2101.684,2991.707,2101.293L2986.707,2096.293ZZZ">
            </path>
          </g>
        </g>
      </g>
    </g>
  </g>
</svg>